<?xml version="1.0" encoding="iso-8859-1"?>
<!-- Generator: Adobe Illustrator 22.1.0, SVG Export Plug-In . SVG Version: 6.00 Build 0)  -->
<svg xmlns="http://www.w3.org/2000/svg" xmlns:xlink="http://www.w3.org/1999/xlink" version="1.1" id="Layer_1" x="0px" y="0px" viewBox="0 0 64 64" style="enable-background:new 0 0 64 64;" xml:space="preserve" width="64px" height="64px">
<linearGradient id="SVGID_1__79112" gradientUnits="userSpaceOnUse" x1="44.335" y1="7.8" x2="44.335" y2="30.5" spreadMethod="reflect">
	<stop offset="0" style="stop-color:#6DC7FF"/>
	<stop offset="1" style="stop-color:#E6ABFF"/>
</linearGradient>
<path style="fill:url(#SVGID_1__79112);" d="M52.67,17.92c-1.41,5.4-4.73,9.63-9.54,12.58l-3.02-0.41c-0.54-2.33-2.06-4.28-4.11-5.41  L38.28,7.8C44.21,9.33,49.3,12.99,52.67,17.92z"/>
<linearGradient id="SVGID_2__79112" gradientUnits="userSpaceOnUse" x1="15.725" y1="31.62" x2="15.725" y2="35.57" spreadMethod="reflect">
	<stop offset="0" style="stop-color:#6DC7FF"/>
	<stop offset="1" style="stop-color:#E6ABFF"/>
</linearGradient>
<path style="fill:url(#SVGID_2__79112);" d="M24.45,35.51c-0.84,0.04-1.7,0.06-2.57,0.06c-5.77,0-10.68-0.55-14.8-1.53  C7.02,33.37,7,32.69,7,32c0-0.13,0-0.25,0.01-0.38l16.88,2.29C24.02,34.46,24.2,35,24.45,35.51z"/>
<linearGradient id="SVGID_3__79112" gradientUnits="userSpaceOnUse" x1="20.0894" y1="7" x2="20.0894" y2="28.0012" spreadMethod="reflect">
	<stop offset="0" style="stop-color:#6DC7FF"/>
	<stop offset="1" style="stop-color:#E6ABFF"/>
</linearGradient>
<path style="fill:url(#SVGID_3__79112);" d="M32.381,7.013l-2.286,16.881c-2.334,0.536-4.286,2.06-5.416,4.107L7.798,25.714  C10.584,14.953,20.358,7,32,7C32.131,7,32.25,7,32.381,7.013z"/>
<linearGradient id="SVGID_4__79112" gradientUnits="userSpaceOnUse" x1="46.4587" y1="5.75" x2="46.4587" y2="58.1256" spreadMethod="reflect">
	<stop offset="0" style="stop-color:#1A6DFF"/>
	<stop offset="1" style="stop-color:#C822FF"/>
</linearGradient>
<path style="fill:url(#SVGID_4__79112);" d="M57.908,33.514l-18.616-2.526l-0.156-0.672c-0.467-2.015-1.786-3.75-3.619-4.759l-0.6-0.331  L37.44,6.55l1.09,0.281c6.084,1.57,11.399,5.308,14.965,10.524C56.443,21.685,58,26.749,58,32c0,0.156-0.001,0.299-0.013,0.455  L57.908,33.514z M40.9,29.188l15.088,2.047c-0.144-4.574-1.569-8.968-4.145-12.752c-3.077-4.501-7.566-7.811-12.726-9.406  l-2.038,15.086C38.9,25.35,40.254,27.13,40.9,29.188z"/>
<linearGradient id="SVGID_5__79112" gradientUnits="userSpaceOnUse" x1="17.5415" y1="5.75" x2="17.5415" y2="58.1256" spreadMethod="reflect">
	<stop offset="0" style="stop-color:#1A6DFF"/>
	<stop offset="1" style="stop-color:#C822FF"/>
</linearGradient>
<path style="fill:url(#SVGID_5__79112);" d="M26.549,57.45l-1.09-0.282C14.764,54.402,6.977,45.14,6.083,34.121C6.027,33.49,6,32.813,6,32  c0-0.156,0.001-0.299,0.013-0.455l0.08-1.059l18.613,2.525l0.158,0.668c0.121,0.513,0.284,0.98,0.485,1.389  c0.662,1.449,1.742,2.607,3.135,3.375l0.6,0.331L26.549,57.45z M8.01,32.765c0.011,0.428,0.033,0.815,0.066,1.186  c0.795,9.802,7.488,18.092,16.798,20.973l2.047-15.087c-1.471-0.961-2.658-2.329-3.38-3.912c-0.165-0.336-0.313-0.711-0.439-1.113  L8.01,32.765z"/>
<linearGradient id="SVGID_6__79112" gradientUnits="userSpaceOnUse" x1="20.0293" y1="5.75" x2="20.0293" y2="58.1256" spreadMethod="reflect">
	<stop offset="0" style="stop-color:#1A6DFF"/>
	<stop offset="1" style="stop-color:#C822FF"/>
</linearGradient>
<path style="fill:url(#SVGID_6__79112);" d="M25.223,29.084L6.547,26.554l0.282-1.09C9.797,14.003,20.147,6,32,6  c0.165,0,0.313,0.001,0.478,0.018l1.034,0.1l-2.519,18.596l-0.674,0.155c-2.016,0.463-3.753,1.782-4.765,3.616L25.223,29.084z   M9.074,24.878l15.087,2.044c1.189-1.824,2.972-3.177,5.032-3.82l2.043-15.09C20.993,8.334,12.093,15.126,9.074,24.878z"/>
<linearGradient id="SVGID_7__79112" gradientUnits="userSpaceOnUse" x1="43.9683" y1="5.75" x2="43.9683" y2="58.1256" spreadMethod="reflect">
	<stop offset="0" style="stop-color:#1A6DFF"/>
	<stop offset="1" style="stop-color:#C822FF"/>
</linearGradient>
<path style="fill:url(#SVGID_7__79112);" d="M32,58c-0.156,0-0.299-0.001-0.455-0.013l-1.059-0.08l2.526-18.616l0.672-0.156  c2.015-0.467,3.75-1.786,4.759-3.619l0.331-0.6L57.45,37.45l-0.282,1.09C54.208,49.998,43.858,58,32,58z M34.812,40.9l-2.047,15.088  c10.248-0.323,19.146-7.113,22.159-16.862L39.837,37.08C38.65,38.9,36.87,40.254,34.812,40.9z"/>
</svg>
